<svg xmlns="http://www.w3.org/2000/svg" width="491.686" height="337.914" viewBox="0 0 491.686 337.914">
  <g id="Grupo_58891" data-name="Grupo 58891" transform="translate(-860.333 -148.049)">
    <g id="Grupo_58883" data-name="Grupo 58883">
      <g id="Grupo_57866" data-name="Grupo 57866" transform="translate(694.508 63.359)">
        <g id="Grupo_57832" data-name="Grupo 57832" transform="translate(239.976 94.415)">
          <g id="Grupo_57813" data-name="Grupo 57813" transform="translate(12.134 218.767)">
            <g id="Grupo_58632" data-name="Grupo 58632">
              <g id="Grupo_58859" data-name="Grupo 58859">
                <g id="Grupo_58858" data-name="Grupo 58858">
                  <g id="Grupo_58857" data-name="Grupo 58857">
                    <g id="Grupo_58856" data-name="Grupo 58856">
                      <g id="Grupo_58855" data-name="Grupo 58855">
                        <g id="Grupo_58854" data-name="Grupo 58854">
                          <g id="Grupo_58853" data-name="Grupo 58853">
                            <g id="Grupo_58880" data-name="Grupo 58880">
                              <g id="Grupo_58879" data-name="Grupo 58879">
                                <g id="Grupo_58878" data-name="Grupo 58878">
                                  <g id="Grupo_58877" data-name="Grupo 58877">
                                    <g id="Grupo_58876" data-name="Grupo 58876">
                                      <g id="Grupo_58875" data-name="Grupo 58875">
                                        <g id="Grupo_58874" data-name="Grupo 58874">
                                          <g id="Grupo_58873" data-name="Grupo 58873">
                                            <g id="Grupo_58872" data-name="Grupo 58872">
                                              <g id="Grupo_58871" data-name="Grupo 58871">
                                                <g id="Grupo_58870" data-name="Grupo 58870">
                                                  <g id="Grupo_58869" data-name="Grupo 58869">
                                                    <g id="Grupo_58868" data-name="Grupo 58868">
                                                      <g id="Grupo_58867" data-name="Grupo 58867">
                                                        <g id="Grupo_58866" data-name="Grupo 58866">
                                                          <g id="Grupo_58865" data-name="Grupo 58865">
                                                            <g id="Grupo_58864" data-name="Grupo 58864">
                                                              <g id="Grupo_58863" data-name="Grupo 58863">
                                                                <g id="Grupo_58862" data-name="Grupo 58862">
                                                                  <g id="Grupo_58861" data-name="Grupo 58861">
                                                                    <g id="Grupo_58860" data-name="Grupo 58860">
                                                                      <path id="Trazado_103144" data-name="Trazado 103144" d="M571.526,415.909s-321.031,1.222-320.994.055c1.445-45.485,30.834-84.489,71.9-94.782l51.872-13h77.351l43.389,8.426c44.259,8.595,76.485,50.435,76.485,99.3Z" transform="translate(-250.02 -307.667)" fill="#f44c5d"/>
                                                                    </g>
                                                                  </g>
                                                                </g>
                                                              </g>
                                                            </g>
                                                          </g>
                                                        </g>
                                                      </g>
                                                    </g>
                                                  </g>
                                                </g>
                                              </g>
                                            </g>
                                          </g>
                                        </g>
                                      </g>
                                    </g>
                                  </g>
                                </g>
                              </g>
                            </g>
                          </g>
                        </g>
                      </g>
                    </g>
                  </g>
                </g>
              </g>
            </g>
            <path id="Trazado_103145" data-name="Trazado 103145" d="M329.312,416.995c-78.514,0-78.881-.4-79.133-.655a.531.531,0,0,1-.148-.379C251.486,370.175,281.21,331,322.316,320.7l51.872-13a.515.515,0,0,1,.125-.015h77.351l43.486,8.436c44.559,8.653,76.9,50.627,76.9,99.806a.513.513,0,0,1-.51.512c-.8,0-80.884.306-160.075.464C377.38,416.966,350.494,416.995,329.312,416.995Zm-78.24-1.447c12.48,1,305.731-.084,319.953-.137-.222-48.47-32.145-89.76-76.07-98.289l-43.389-8.427-77.189.009-51.812,12.989C282.035,331.851,252.69,370.41,251.072,415.548Zm320.466.373h0Z" transform="translate(-250.032 -307.679)" fill="#271c22"/>
          </g>
          <g id="Grupo_57831" data-name="Grupo 57831" transform="translate(114.525)">
            <g id="Grupo_58852" data-name="Grupo 58852">
              <g id="Grupo_58851" data-name="Grupo 58851">
                <g id="Grupo_58850" data-name="Grupo 58850">
                  <g id="Grupo_58849" data-name="Grupo 58849">
                    <g id="Grupo_58848" data-name="Grupo 58848">
                      <g id="Grupo_58847" data-name="Grupo 58847">
                        <g id="Grupo_58846" data-name="Grupo 58846">
                          <g id="Grupo_58845" data-name="Grupo 58845">
                            <g id="Grupo_58844" data-name="Grupo 58844">
                              <g id="Grupo_58843" data-name="Grupo 58843">
                                <g id="Grupo_58842" data-name="Grupo 58842">
                                  <g id="Grupo_58841" data-name="Grupo 58841">
                                    <g id="Grupo_58840" data-name="Grupo 58840">
                                      <g id="Grupo_58839" data-name="Grupo 58839">
                                        <g id="Grupo_58838" data-name="Grupo 58838">
                                          <g id="Grupo_58837" data-name="Grupo 58837">
                                            <g id="Grupo_58836" data-name="Grupo 58836">
                                              <g id="Grupo_58835" data-name="Grupo 58835">
                                                <g id="Grupo_58834" data-name="Grupo 58834">
                                                  <g id="Grupo_58833" data-name="Grupo 58833">
                                                    <g id="Grupo_58832" data-name="Grupo 58832">
                                                      <g id="Grupo_58831" data-name="Grupo 58831">
                                                        <g id="Grupo_58830" data-name="Grupo 58830">
                                                          <g id="Grupo_58829" data-name="Grupo 58829">
                                                            <g id="Grupo_58828" data-name="Grupo 58828">
                                                              <g id="Grupo_58827" data-name="Grupo 58827">
                                                                <g id="Grupo_58826" data-name="Grupo 58826">
                                                                  <g id="Grupo_58825" data-name="Grupo 58825">
                                                                    <path id="Trazado_103146" data-name="Trazado 103146" d="M431.082,165.06a38.673,38.673,0,1,0-43.765-.691,52.832,52.832,0,1,0,43.765.691Z" transform="translate(-349.817 -94.182)" fill="#271c22"/>
                                                                  </g>
                                                                </g>
                                                              </g>
                                                            </g>
                                                          </g>
                                                        </g>
                                                      </g>
                                                    </g>
                                                  </g>
                                                </g>
                                              </g>
                                            </g>
                                          </g>
                                        </g>
                                      </g>
                                    </g>
                                  </g>
                                </g>
                              </g>
                            </g>
                          </g>
                        </g>
                      </g>
                    </g>
                  </g>
                </g>
              </g>
            </g>
            <g id="Grupo_57819" data-name="Grupo 57819" transform="translate(0 78.156)">
              <g id="Grupo_57814" data-name="Grupo 57814" transform="translate(0 48.987)">
                <path id="Trazado_103147" data-name="Trazado 103147" d="M366.385,218.762h-.59a15.337,15.337,0,0,0,0,30.675h1.042a40.805,40.805,0,0,1-.452-6.031Z" transform="translate(-349.945 -218.25)" fill="#e6b7b1"/>
                <path id="Trazado_103148" data-name="Trazado 103148" d="M366.85,249.962h-1.043a15.85,15.85,0,0,1,0-31.7h.59a.512.512,0,0,1,.512.512v24.644a40.422,40.422,0,0,0,.447,5.955.513.513,0,0,1-.506.589Zm-1.043-30.676a14.826,14.826,0,0,0,0,29.651h.452a41.44,41.44,0,0,1-.374-5.52V219.287Z" transform="translate(-349.957 -218.262)" fill="#271c22"/>
              </g>
              <g id="Grupo_57815" data-name="Grupo 57815" transform="translate(99.832 48.987)">
                <path id="Trazado_103149" data-name="Trazado 103149" d="M448.926,218.762h-.589v24.644a40.8,40.8,0,0,1-.453,6.031h1.042a15.337,15.337,0,0,0,0-30.675Z" transform="translate(-447.372 -218.25)" fill="#e6b7b1"/>
                <path id="Trazado_103150" data-name="Trazado 103150" d="M448.939,249.962H447.9a.512.512,0,0,1-.506-.589,40.483,40.483,0,0,0,.446-5.955V218.774a.513.513,0,0,1,.512-.512h.591a15.85,15.85,0,0,1,0,31.7Zm-.453-1.025h.453a14.826,14.826,0,0,0,0-29.651h-.079v24.131A41.51,41.51,0,0,1,448.487,248.938Z" transform="translate(-447.384 -218.262)" fill="#271c22"/>
              </g>
              <g id="Grupo_57816" data-name="Grupo 57816" transform="translate(27.422 101.961)">
                <path id="Trazado_103151" data-name="Trazado 103151" d="M377.22,270.46v41.464h61.365V299.16c-12.22-1.283-29.757-11.257-38.061-16.362A42.343,42.343,0,0,1,377.22,270.46Z" transform="translate(-376.707 -269.948)" fill="#e6b7b1"/>
                <path id="Trazado_103152" data-name="Trazado 103152" d="M438.6,312.448H377.231a.512.512,0,0,1-.512-.512V270.471a.513.513,0,0,1,.882-.355A41.559,41.559,0,0,0,400.624,282.3a.543.543,0,0,1,.181.07c9.02,5.547,25.929,15.038,37.844,16.288a.512.512,0,0,1,.46.509v12.764A.512.512,0,0,1,438.6,312.448Zm-60.854-1.025h60.341V299.63c-12.048-1.454-28.733-10.8-37.733-16.331a42.588,42.588,0,0,1-22.609-11.582Z" transform="translate(-376.719 -269.96)" fill="#271c22"/>
              </g>
              <path id="Trazado_103153" data-name="Trazado 103153" d="M407.341,283.441a43.3,43.3,0,0,1-7.378-.642c8.3,5.1,25.84,15.079,38.061,16.362v-28.7A42.468,42.468,0,0,1,407.341,283.441Z" transform="translate(-348.723 -167.987)" fill="#271c22"/>
              <g id="Grupo_57818" data-name="Grupo 57818" transform="translate(15.928)">
                <g id="Grupo_57817" data-name="Grupo 57817" transform="translate(0 3.477)">
                  <path id="Trazado_103154" data-name="Trazado 103154" d="M409.44,174.348c-2.555,17.82-19.923,32.605-43.418,36.474-.005.283-.022.564-.022.847V244.5a40.7,40.7,0,0,0,11.5,28.33,42.343,42.343,0,0,0,23.3,12.338,43.3,43.3,0,0,0,7.378.642,42.468,42.468,0,0,0,30.683-12.981,40.718,40.718,0,0,0,11.5-28.33V211.67c0-.434-.02-.864-.034-1.3C428.116,205.893,411.9,191.525,409.44,174.348Z" transform="translate(-365.489 -173.836)" fill="#e6b7b1"/>
                  <path id="Trazado_103155" data-name="Trazado 103155" d="M408.191,286.337a43.814,43.814,0,0,1-7.465-.651A42.6,42.6,0,0,1,377.139,273.2,41.217,41.217,0,0,1,365.5,244.514V211.682c0-.177.006-.354.012-.53l.009-.328a.512.512,0,0,1,.429-.495c23.172-3.816,40.45-18.3,42.993-36.042a.512.512,0,0,1,1.014,0c2.42,16.894,18.688,31.2,40.478,35.6a.513.513,0,0,1,.411.488l.011.332c.011.325.022.651.022.979v32.832A41.218,41.218,0,0,1,439.243,273.2,42.7,42.7,0,0,1,408.191,286.337ZM366.534,211.27c0,.136-.008.274-.008.412v32.832a40.2,40.2,0,0,0,11.352,27.975A41.559,41.559,0,0,0,400.9,284.676a42.822,42.822,0,0,0,7.291.636A41.689,41.689,0,0,0,438.5,272.489a40.175,40.175,0,0,0,11.352-27.975V211.682c0-.293-.008-.584-.018-.875-20.848-4.334-36.67-17.637-40.384-33.659C405.591,193.979,388.758,207.479,366.534,211.27Z" transform="translate(-365.501 -173.848)" fill="#271c22"/>
                </g>
                <path id="Trazado_103156" data-name="Trazado 103156" d="M407.163,170.455h0Z" transform="translate(-364.473 -170.455)" fill="#e6b7b1"/>
              </g>
            </g>
            <g id="Grupo_57822" data-name="Grupo 57822" transform="translate(7.922 111.809)">
              <path id="Trazado_103157" data-name="Trazado 103157" d="M407.682,247.755a.514.514,0,0,1-.512-.505c0-.265-.222-6.513-10.519-7.017a.513.513,0,0,1-.487-.537.5.5,0,0,1,.537-.487c11.3.552,11.494,7.956,11.494,8.03a.51.51,0,0,1-.506.515Z" transform="translate(-356.739 -202.411)" fill="#271c22"/>
              <path id="Trazado_103158" data-name="Trazado 103158" d="M392.49,221.635a3.251,3.251,0,1,1-3.251-3.251A3.251,3.251,0,0,1,392.49,221.635Z" transform="translate(-356.99 -202.925)" fill="#271c22"/>
              <path id="Trazado_103159" data-name="Trazado 103159" d="M430.42,221.635a3.251,3.251,0,1,1-3.251-3.251A3.251,3.251,0,0,1,430.42,221.635Z" transform="translate(-356.054 -202.925)" fill="#271c22"/>
              <path id="Trazado_103160" data-name="Trazado 103160" d="M358.628,237.743a.513.513,0,0,1-.328-.907l2.966-2.463-3.364-2.428a.512.512,0,1,1,.6-.832l3.364,2.411a1.036,1.036,0,0,1,.058,1.638l-2.967,2.462A.514.514,0,0,1,358.628,237.743Z" transform="translate(-357.688 -202.613)" fill="#271c22"/>
              <path id="Trazado_103161" data-name="Trazado 103161" d="M456.282,237.743a.515.515,0,0,1-.328-.119l-2.966-2.462a1.036,1.036,0,0,1,.056-1.638l3.366-2.411a.512.512,0,0,1,.6.832l-3.365,2.412,2.967,2.48a.513.513,0,0,1-.327.907Z" transform="translate(-355.346 -202.613)" fill="#271c22"/>
              <g id="Grupo_57820" data-name="Grupo 57820" transform="translate(24.627)">
                <path id="Trazado_103162" data-name="Trazado 103162" d="M383.609,203.314a8.987,8.987,0,0,1,3.35,1.654c1.1.741,2.232,1.457,3.233,2.045s2.178,1.228,3.363,1.832a8.945,8.945,0,0,1,3.068,2.119c.647.87.383,2.118-1.389,2.8-1.691.686-4.993.571-8.317-1.373s-4.976-4.762-5.162-6.551C381.53,203.984,382.523,203.166,383.609,203.314Z" transform="translate(-381.722 -203.297)" fill="#271c22"/>
              </g>
              <g id="Grupo_57821" data-name="Grupo 57821" transform="translate(63.868 0.132)">
                <path id="Trazado_103163" data-name="Trazado 103163" d="M433.908,203.43a8.988,8.988,0,0,0-3.453,1.422c-1.153.665-2.326,1.3-3.365,1.822s-2.257,1.077-3.48,1.6a8.962,8.962,0,0,0-3.2,1.9c-.7.825-.527,2.088,1.195,2.891,1.641.8,4.943.908,8.392-.805s5.287-4.413,5.595-6.185C435.936,204.24,435,203.356,433.908,203.43Z" transform="translate(-420.018 -203.426)" fill="#271c22"/>
              </g>
              <path id="Trazado_103164" data-name="Trazado 103164" d="M404.514,236.575a.513.513,0,0,1-.021-1.025l2.8-.115a7.222,7.222,0,0,0,6.915-7.5,1.883,1.883,0,0,0-1.951-1.8,5.292,5.292,0,0,1-5.5-5.071l-.281-6.911a.511.511,0,0,1,.491-.533.5.5,0,0,1,.533.491l.281,6.911a4.24,4.24,0,0,0,1.372,2.963,4.2,4.2,0,0,0,3.065,1.125,2.905,2.905,0,0,1,3.018,2.781,8.249,8.249,0,0,1-7.9,8.568l-2.8.115Z" transform="translate(-356.545 -203.043)" fill="#271c22"/>
            </g>
            <g id="Grupo_57823" data-name="Grupo 57823" transform="translate(24.521 211.632)">
              <path id="Trazado_103165" data-name="Trazado 103165" d="M439.851,301.343a71.891,71.891,0,0,1-63.758,0,1.175,1.175,0,0,0-1.706,1.044v7.906a1.188,1.188,0,0,0,.639,1.054,71.892,71.892,0,0,0,65.891,0,1.189,1.189,0,0,0,.64-1.054v-7.906A1.175,1.175,0,0,0,439.851,301.343Z" transform="translate(-373.875 -300.704)" fill="#f44c5d"/>
              <path id="Trazado_103166" data-name="Trazado 103166" d="M407.984,319.85a72.384,72.384,0,0,1-33.18-8.035,1.692,1.692,0,0,1-.917-1.509V302.4a1.67,1.67,0,0,1,.791-1.427,1.7,1.7,0,0,1,1.655-.076,71.787,71.787,0,0,0,63.3,0,1.693,1.693,0,0,1,1.653.076,1.669,1.669,0,0,1,.793,1.427v7.906a1.691,1.691,0,0,1-.917,1.509A72.389,72.389,0,0,1,407.984,319.85Zm-32.414-18.109a.657.657,0,0,0-.351.1.64.64,0,0,0-.307.556v7.906a.682.682,0,0,0,.362.6,71.514,71.514,0,0,0,65.422,0,.68.68,0,0,0,.363-.6V302.4a.642.642,0,0,0-.307-.556.67.67,0,0,0-.66-.028h0a72.818,72.818,0,0,1-64.211,0A.694.694,0,0,0,375.571,301.741Zm64.293-.385h0Z" transform="translate(-373.887 -300.717)" fill="#271c22"/>
            </g>
            <g id="Grupo_57824" data-name="Grupo 57824" transform="translate(29.683 213.352)">
              <line id="Línea_162" data-name="Línea 162" y2="10.212" transform="translate(0.513 0.512)" fill="#f44c5d"/>
              <path id="Trazado_103167" data-name="Trazado 103167" d="M379.437,313.632a.513.513,0,0,1-.512-.512V302.907a.512.512,0,0,1,1.025,0v10.212A.512.512,0,0,1,379.437,313.632Z" transform="translate(-378.925 -302.395)" fill="#271c22"/>
            </g>
            <g id="Grupo_57825" data-name="Grupo 57825" transform="translate(38.699 216.475)">
              <line id="Línea_163" data-name="Línea 163" y2="10.212" transform="translate(0.512 0.512)" fill="#f44c5d"/>
              <path id="Trazado_103168" data-name="Trazado 103168" d="M388.236,316.68a.512.512,0,0,1-.512-.512V305.954a.512.512,0,0,1,1.025,0v10.213A.513.513,0,0,1,388.236,316.68Z" transform="translate(-387.724 -305.442)" fill="#271c22"/>
            </g>
            <g id="Grupo_57826" data-name="Grupo 57826" transform="translate(47.715 218.816)">
              <line id="Línea_164" data-name="Línea 164" y2="10.212" transform="translate(0.512 0.513)" fill="#f44c5d"/>
              <path id="Trazado_103169" data-name="Trazado 103169" d="M397.035,318.965a.512.512,0,0,1-.512-.512V308.239a.512.512,0,0,1,1.025,0v10.213A.513.513,0,0,1,397.035,318.965Z" transform="translate(-396.523 -307.727)" fill="#271c22"/>
            </g>
            <g id="Grupo_57827" data-name="Grupo 57827" transform="translate(85.436 214.081)">
              <line id="Línea_165" data-name="Línea 165" y2="10.212" transform="translate(0.512 0.512)" fill="#f44c5d"/>
              <path id="Trazado_103170" data-name="Trazado 103170" d="M433.847,314.343a.513.513,0,0,1-.512-.512V303.618a.512.512,0,0,1,1.025,0V313.83A.513.513,0,0,1,433.847,314.343Z" transform="translate(-433.335 -303.106)" fill="#271c22"/>
            </g>
            <g id="Grupo_57828" data-name="Grupo 57828" transform="translate(76.419 217.203)">
              <line id="Línea_166" data-name="Línea 166" y2="10.212" transform="translate(0.513 0.513)" fill="#f44c5d"/>
              <path id="Trazado_103171" data-name="Trazado 103171" d="M425.048,317.391a.513.513,0,0,1-.512-.512V306.665a.512.512,0,0,1,1.025,0v10.213A.512.512,0,0,1,425.048,317.391Z" transform="translate(-424.536 -306.153)" fill="#271c22"/>
            </g>
            <g id="Grupo_57829" data-name="Grupo 57829" transform="translate(67.403 218.816)">
              <line id="Línea_167" data-name="Línea 167" y2="9.854" transform="translate(0.513 0.513)" fill="#f44c5d"/>
              <path id="Trazado_103172" data-name="Trazado 103172" d="M416.249,318.606a.512.512,0,0,1-.512-.512v-9.854a.512.512,0,0,1,1.025,0v9.854A.511.511,0,0,1,416.249,318.606Z" transform="translate(-415.737 -307.727)" fill="#271c22"/>
            </g>
            <g id="Grupo_57830" data-name="Grupo 57830" transform="translate(58.105 219.544)">
              <line id="Línea_168" data-name="Línea 168" y2="10.212" transform="translate(0.513 0.513)" fill="#f44c5d"/>
              <path id="Trazado_103173" data-name="Trazado 103173" d="M407.175,319.676a.513.513,0,0,1-.512-.512V308.95a.512.512,0,0,1,1.025,0v10.213A.512.512,0,0,1,407.175,319.676Z" transform="translate(-406.663 -308.438)" fill="#271c22"/>
            </g>
          </g>
          <path id="Trazado_103174" data-name="Trazado 103174" d="M266.389,356.431l4.134,58.733H238.19Z" transform="translate(-238.19 -87.709)" fill="#271c22"/>
          <path id="Trazado_103175" data-name="Trazado 103175" d="M547.169,356.431l-4.134,58.733h32.333Z" transform="translate(-230.667 -87.709)" fill="#271c22"/>
        </g>
        <g id="Grupo_57865" data-name="Grupo 57865" transform="translate(165.825 84.69)">
          <g id="Grupo_57849" data-name="Grupo 57849" transform="translate(283.299)">
            <g id="Grupo_57842" data-name="Grupo 57842">
              <g id="Grupo_57833" data-name="Grupo 57833" transform="translate(21.326 51.219)">
                <path id="Trazado_103176" data-name="Trazado 103176" d="M476.723,148.446c-9.426,9.5-15.015,19.242-12.483,21.754s12.226-3.156,21.652-12.658,15.015-19.244,12.483-21.756S486.149,138.943,476.723,148.446Z" transform="translate(-463.101 -134.662)" fill="#271c22"/>
                <path id="Trazado_103177" data-name="Trazado 103177" d="M466.026,171.338a2.911,2.911,0,0,1-2.134-.761c-3.213-3.189,4.032-13.961,12.482-22.478s19.167-15.85,22.376-12.663-4.031,13.961-12.48,22.479C479.2,165.041,470.548,171.338,466.026,171.338Zm30.642-35.62c-3.387,0-11.2,4.669-19.567,13.1-9.846,9.926-14.483,19.049-12.487,21.029s11.082-2.73,20.927-12.656,14.483-19.05,12.487-21.031A1.866,1.866,0,0,0,496.668,135.718Z" transform="translate(-463.114 -134.675)" fill="#271c22"/>
              </g>
              <g id="Grupo_57834" data-name="Grupo 57834" transform="translate(21.623 51.561)">
                <path id="Trazado_103178" data-name="Trazado 103178" d="M464.226,170.186l120.3,119.322,34.135-34.414-120.3-119.322-5.2,7.057a32.8,32.8,0,0,1-8,7.689h0a21.087,21.087,0,0,0-6.778,7.531h0a23.073,23.073,0,0,1-9,9.226Z" transform="translate(-463.384 -134.99)" fill="#f0eee1"/>
                <path id="Trazado_103179" data-name="Trazado 103179" d="M584.546,290.251l-.364-.36L463.4,170.092l5.737-3.243a22.527,22.527,0,0,0,8.8-9.021,21.681,21.681,0,0,1,6.942-7.715,32.179,32.179,0,0,0,7.88-7.569l5.557-7.534L619.4,255.109l-.361.365ZM465.088,170.317,584.539,288.8l33.415-33.686L498.442,136.573l-4.853,6.579a33.222,33.222,0,0,1-8.129,7.809,20.626,20.626,0,0,0-6.612,7.349,23.568,23.568,0,0,1-9.2,9.431Z" transform="translate(-463.404 -135.009)" fill="#271c22"/>
              </g>
              <g id="Grupo_57835" data-name="Grupo 57835" transform="translate(61.967 91.516)">
                <path id="Trazado_103180" data-name="Trazado 103180" d="M503.482,209.123l83.25,82.575a10.526,10.526,0,0,0,14.887-.06l19.309-19.467a10.527,10.527,0,0,0-.06-14.887l-83.249-82.575-17.53,17.674Z" transform="translate(-502.759 -173.985)" fill="#fe851b"/>
                <path id="Trazado_103181" data-name="Trazado 103181" d="M594.161,295.275a11.006,11.006,0,0,1-7.773-3.195l-83.612-82.936L537.631,174l.365.361,83.249,82.574a11.052,11.052,0,0,1,.063,15.612L602,292.015A11.013,11.013,0,0,1,594.161,295.275Zm-89.936-86.137,82.885,82.213a10.025,10.025,0,0,0,14.163-.058l19.307-19.467a10.025,10.025,0,0,0-.057-14.162l-82.885-82.212Z" transform="translate(-502.776 -174.002)" fill="#271c22"/>
              </g>
              <g id="Grupo_57841" data-name="Grupo 57841">
                <g id="Grupo_57836" data-name="Grupo 57836" transform="translate(15.296 51.828)">
                  <path id="Trazado_103182" data-name="Trazado 103182" d="M459.515,139.268c-.376,1.842-1.023,3.267-1.444,3.181s-.458-1.649-.081-3.492,1.022-3.267,1.443-3.181S459.891,137.426,459.515,139.268Z" transform="translate(-457.217 -135.258)" fill="#161541"/>
                  <path id="Trazado_103183" data-name="Trazado 103183" d="M458.131,142.979a.765.765,0,0,1-.15-.015c-.643-.131-.736-.963-.75-1.577a13.32,13.32,0,0,1,1.009-4.943c.254-.559.663-1.292,1.307-1.157,1.143.235.717,2.943.482,4.1a11.8,11.8,0,0,1-.741,2.422C459.055,142.321,458.688,142.979,458.131,142.979Zm1.134-6.306a11.965,11.965,0,0,0-1,4.9,11.879,11.879,0,0,0,1-4.9Z" transform="translate(-457.229 -135.27)" fill="#271c22"/>
                </g>
                <g id="Grupo_57837" data-name="Grupo 57837" transform="translate(19.866 18.069)">
                  <path id="Trazado_103184" data-name="Trazado 103184" d="M463.979,106.322c-.376,1.843-1.022,3.267-1.444,3.181s-.457-1.65-.081-3.492,1.023-3.267,1.444-3.181S464.356,104.48,463.979,106.322Z" transform="translate(-461.677 -102.312)" fill="#161541"/>
                  <path id="Trazado_103185" data-name="Trazado 103185" d="M462.595,110.033a.763.763,0,0,1-.149-.015c-1.142-.233-.716-2.943-.482-4.1a11.927,11.927,0,0,1,.741-2.422c.254-.559.655-1.292,1.307-1.158s.735.963.75,1.577a11.9,11.9,0,0,1-.269,2.52h0a11.834,11.834,0,0,1-.741,2.423C463.52,109.375,463.152,110.033,462.595,110.033Zm1.135-6.3a11.924,11.924,0,0,0-1,4.9,9.89,9.89,0,0,0,.759-2.4h0A9.914,9.914,0,0,0,463.73,103.729Z" transform="translate(-461.689 -102.324)" fill="#271c22"/>
                </g>
                <g id="Grupo_57838" data-name="Grupo 57838">
                  <path id="Trazado_103186" data-name="Trazado 103186" d="M444.42,86.877c-.271.778-.819,1.293-1.226,1.152s-.515-.886-.245-1.663.82-1.294,1.225-1.153S444.692,86.1,444.42,86.877Z" transform="translate(-442.289 -84.678)" fill="#161541"/>
                  <path id="Trazado_103187" data-name="Trazado 103187" d="M443.347,88.577a.932.932,0,0,1-.308-.051,1.173,1.173,0,0,1-.715-1,2.866,2.866,0,0,1,.155-1.314c.376-1.079,1.19-1.708,1.877-1.467s.937,1.238.562,2.316a2.422,2.422,0,0,1-1.092,1.4A1.092,1.092,0,0,1,443.347,88.577Zm.644-2.883a1.967,1.967,0,0,0-.544.853,1.324,1.324,0,0,0-.043,1.028,1.948,1.948,0,0,0,.544-.853h0A1.306,1.306,0,0,0,443.991,85.693Z" transform="translate(-442.302 -84.69)" fill="#271c22"/>
                </g>
                <g id="Grupo_57839" data-name="Grupo 57839" transform="translate(40.617 38.224)">
                  <path id="Trazado_103188" data-name="Trazado 103188" d="M484.06,124.181c-.272.778-.82,1.293-1.225,1.152s-.516-.885-.245-1.664.819-1.293,1.226-1.152S484.331,123.4,484.06,124.181Z" transform="translate(-481.929 -121.981)" fill="#161541"/>
                  <path id="Trazado_103189" data-name="Trazado 103189" d="M482.985,125.881a.938.938,0,0,1-.308-.052,1.166,1.166,0,0,1-.713-1,3.052,3.052,0,0,1,.849-2.44,1.169,1.169,0,0,1,1.181-.342c.695.243.937,1.238.562,2.317h0a2.85,2.85,0,0,1-.695,1.126A1.3,1.3,0,0,1,482.985,125.881ZM483.63,123a1.96,1.96,0,0,0-.543.853,1.311,1.311,0,0,0-.043,1.029,1.965,1.965,0,0,0,.544-.854A1.316,1.316,0,0,0,483.63,123Z" transform="translate(-481.941 -121.993)" fill="#271c22"/>
                </g>
                <g id="Grupo_57840" data-name="Grupo 57840" transform="translate(12.148 83.201)">
                  <path id="Trazado_103190" data-name="Trazado 103190" d="M456.275,168.074c-.271.777-.819,1.293-1.225,1.152s-.515-.886-.245-1.664.82-1.293,1.226-1.152S456.546,167.3,456.275,168.074Z" transform="translate(-454.144 -165.874)" fill="#161541"/>
                  <path id="Trazado_103191" data-name="Trazado 103191" d="M455.2,169.773a.908.908,0,0,1-.308-.052,1.01,1.01,0,0,1-.576-.537,2.422,2.422,0,0,1,.017-1.779c.374-1.077,1.174-1.706,1.876-1.467a1.172,1.172,0,0,1,.716,1,2.876,2.876,0,0,1-.155,1.313h0a2.826,2.826,0,0,1-.695,1.124A1.3,1.3,0,0,1,455.2,169.773Zm.646-2.882a1.915,1.915,0,0,0-.544.852,1.314,1.314,0,0,0-.044,1.029,1.969,1.969,0,0,0,.546-.854A1.323,1.323,0,0,0,455.847,166.89Z" transform="translate(-454.157 -165.887)" fill="#271c22"/>
                </g>
              </g>
            </g>
            <g id="Grupo_57848" data-name="Grupo 57848" transform="translate(55.991 79.691)">
              <g id="Grupo_57847" data-name="Grupo 57847">
                <path id="Trazado_103192" data-name="Trazado 103192" d="M564.686,216.05" transform="translate(-495.272 -161.139)" fill="#e6b7b1" stroke="#271c22" stroke-linecap="round" stroke-linejoin="round" stroke-width="1"/>
                <path id="Trazado_103193" data-name="Trazado 103193" d="M546.783,220.787" transform="translate(-495.714 -161.022)" fill="#e6b7b1" stroke="#271c22" stroke-linecap="round" stroke-linejoin="round" stroke-width="1"/>
                <g id="Grupo_57846" data-name="Grupo 57846">
                  <g id="Grupo_57843" data-name="Grupo 57843">
                    <g id="Grupo_58881" data-name="Grupo 58881">
                      <path id="Trazado_103194" data-name="Trazado 103194" d="M526.121,267.625l-22.342-23.8a22.58,22.58,0,0,1-5.718-20.839l3.775-15.528,15.095,14.973a32.5,32.5,0,0,0,17.705,9.008h0A15.654,15.654,0,0,0,551.7,220.929c3.025-9.948.461-20.718-8.76-29.352l-5.711-6.223a12.4,12.4,0,0,1,.02-17.111,6.137,6.137,0,0,1,9.066.371s2.512,2.912,5.981,6.69a12.09,12.09,0,0,1,2.136-10.76c2-2.407,5.89-2.015,8.051.814,0,0,4.727,5.888,10.044,11.889l-.033-.242a9.444,9.444,0,0,1,3-7.116c1.849-1.665,4.836-.959,6.189,1.462,0,0,10.038,16.987,14.486,20.768,4.125,4.709,5.027,11.136,5.438,17.156a116.593,116.593,0,0,1,.051,20.94l-3.23,28.646c8.239,18.566,44.405,112.292,50.386,161.191.028.226-92.059,0-92.059,0Z" transform="translate(-496.932 -162.449)" fill="#e6b7b1"/>
                    </g>
                    <path id="Trazado_103195" data-name="Trazado 103195" d="M621.81,420.685c-13.673,0-34.2-.032-65.042-.108a.512.512,0,0,1-.5-.412L525.66,267.881,503.417,244.19a23.137,23.137,0,0,1-5.842-21.309l3.775-15.528a.516.516,0,0,1,.36-.372.508.508,0,0,1,.5.13L517.3,222.082a31.793,31.793,0,0,0,17.426,8.867,15.058,15.058,0,0,0,16.492-10.156c3.122-10.268-.018-20.776-8.62-28.83l-5.737-6.25a12.961,12.961,0,0,1,.025-17.809,6.473,6.473,0,0,1,4.958-1.98,6.583,6.583,0,0,1,4.877,2.378c.013.015,1.958,2.269,4.748,5.34a12.192,12.192,0,0,1,2.578-9.414,4.87,4.87,0,0,1,3.962-1.766,6.44,6.44,0,0,1,4.89,2.6c.037.047,4.26,5.3,9.148,10.873a9.84,9.84,0,0,1,3.111-6.41,4.044,4.044,0,0,1,3.439-.981,5.024,5.024,0,0,1,3.541,2.573c.094.159,10.038,16.946,14.369,20.629,4.221,4.807,5.191,11.253,5.618,17.51.461,6.765.845,13.961.049,21.034l-3.214,28.508C607.688,278.5,643.4,371.437,649.336,420a.511.511,0,0,1-.125.4C649.074,420.559,648.963,420.685,621.81,420.685Zm-64.621-1.131c29.954.073,85.159.168,91.063.029-6.139-48.705-41.7-141.168-50.279-160.5a.511.511,0,0,1-.041-.264l3.23-28.646c.787-6.988.4-14.132-.053-20.849-.415-6.078-1.346-12.326-5.313-16.853-4.409-3.741-14.128-20.148-14.54-20.846a4.072,4.072,0,0,0-2.82-2.073,3.025,3.025,0,0,0-2.585.731,8.981,8.981,0,0,0-2.83,6.734l.028.174a.512.512,0,0,1-.89.41c-5.265-5.942-10.013-11.851-10.06-11.91a5.417,5.417,0,0,0-4.1-2.2,3.879,3.879,0,0,0-3.154,1.4,11.5,11.5,0,0,0-2.034,10.306.511.511,0,0,1-.873.471c-3.437-3.738-5.969-6.671-5.993-6.7a5.566,5.566,0,0,0-4.128-2.012,5.5,5.5,0,0,0-4.178,1.659,11.947,11.947,0,0,0-.013,16.413l5.71,6.222c8.869,8.3,12.113,19.193,8.873,29.849a16.091,16.091,0,0,1-17.634,10.87,32.806,32.806,0,0,1-17.987-9.151l-14.45-14.332-3.561,14.647a22.12,22.12,0,0,0,5.592,20.367l22.343,23.8a.5.5,0,0,1,.129.249Z" transform="translate(-496.944 -162.462)" fill="#271c22"/>
                  </g>
                  <path id="Trazado_103196" data-name="Trazado 103196" d="M551.186,174.642" transform="translate(-495.605 -162.161)" fill="#e6b7b1" stroke="#271c22" stroke-linecap="round" stroke-linejoin="round" stroke-width="1"/>
                  <g id="Grupo_57844" data-name="Grupo 57844" transform="translate(74.954 14.139)">
                    <path id="Trazado_103197" data-name="Trazado 103197" d="M570.593,176.761c4.453,5.034,9.346,10.18,12.237,12.026h0a24.9,24.9,0,0,1,8.661,17.363" transform="translate(-570.081 -176.248)" fill="#e6b7b1"/>
                    <path id="Trazado_103198" data-name="Trazado 103198" d="M591.5,206.674a.512.512,0,0,1-.511-.488,24.243,24.243,0,0,0-8.483-17c-2.417-1.536-6.571-5.613-12.285-12.073a.512.512,0,1,1,.766-.678c5.572,6.3,9.766,10.424,12.129,11.932a25.286,25.286,0,0,1,8.9,17.77.513.513,0,0,1-.487.537Z" transform="translate(-570.093 -176.26)" fill="#271c22"/>
                  </g>
                  <g id="Grupo_57845" data-name="Grupo 57845" transform="translate(54.94 12.299)">
                    <path id="Trazado_103199" data-name="Trazado 103199" d="M551.061,174.964s10.554,12.634,17.428,16.39h0a21.525,21.525,0,0,1,8.644,17.257L577,220.236" transform="translate(-550.548 -174.452)" fill="#e6b7b1"/>
                    <path id="Trazado_103200" data-name="Trazado 103200" d="M577.013,220.761h-.006a.512.512,0,0,1-.506-.518l.132-11.627a20.9,20.9,0,0,0-8.443-16.844c-6.814-3.715-17.076-15.947-17.51-16.467a.513.513,0,0,1,.787-.657c.1.125,10.572,12.6,17.28,16.268a21.937,21.937,0,0,1,8.911,17.712l-.132,11.627A.512.512,0,0,1,577.013,220.761Z" transform="translate(-550.561 -174.464)" fill="#271c22"/>
                  </g>
                  <path id="Trazado_103201" data-name="Trazado 103201" d="M593.791,191.417" transform="translate(-494.554 -161.747)" fill="#e6b7b1" stroke="#271c22" stroke-linecap="round" stroke-linejoin="round" stroke-width="1"/>
                </g>
              </g>
            </g>
          </g>
          <g id="Grupo_57864" data-name="Grupo 57864" transform="translate(0 13.71)">
            <g id="Grupo_57857" data-name="Grupo 57857" transform="translate(30.592)">
              <g id="Grupo_57850" data-name="Grupo 57850" transform="translate(119.883 37.508)">
                <path id="Trazado_103202" data-name="Trazado 103202" d="M335.454,148.446c9.426,9.5,15.016,19.242,12.484,21.754s-12.226-3.156-21.652-12.658S311.27,138.3,313.8,135.786,326.028,138.943,335.454,148.446Z" transform="translate(-312.664 -134.662)" fill="#271c22"/>
                <path id="Trazado_103203" data-name="Trazado 103203" d="M346.213,171.325c-1.993,0-4.616-1.239-6.762-2.493a70.09,70.09,0,0,1-13.518-10.917c-8.448-8.518-15.693-19.292-12.479-22.479s13.927,4.145,22.376,12.663a70.126,70.126,0,0,1,10.807,13.6c1.756,3.063,3.474,7.088,1.673,8.874A2.864,2.864,0,0,1,346.213,171.325Zm-30.676-35.607a1.867,1.867,0,0,0-1.361.445c-2,1.981,2.64,11.1,12.485,21.031a69.169,69.169,0,0,0,13.306,10.754c3.76,2.2,6.608,2.911,7.623,1.9s.326-3.86-1.841-7.636A69.119,69.119,0,0,0,335.1,148.82h0C326.74,140.388,318.923,135.718,315.537,135.718Z" transform="translate(-312.676 -134.675)" fill="#271c22"/>
              </g>
              <g id="Grupo_57851" data-name="Grupo 57851" transform="translate(0 37.85)">
                <path id="Trazado_103204" data-name="Trazado 103204" d="M350.82,170.186l-120.3,119.322-34.135-34.414,120.3-119.322,5.378,7.293a31.072,31.072,0,0,0,7.589,7.29L333,152.622a5.933,5.933,0,0,1,1.906,2.118l2.386,4.474a18.54,18.54,0,0,0,7.232,7.413Z" transform="translate(-195.664 -134.99)" fill="#f0eee1"/>
                <path id="Trazado_103205" data-name="Trazado 103205" d="M230.537,290.251l-34.856-35.141.364-.361,120.718-119.74,5.729,7.77a30.5,30.5,0,0,0,7.464,7.17l3.348,2.268a6.458,6.458,0,0,1,2.071,2.3l2.386,4.474a18,18,0,0,0,7.032,7.207l6.886,3.894-.481.476ZM197.13,255.116,230.544,288.8,350,170.317l-5.707-3.227a19.025,19.025,0,0,1-7.432-7.616L334.471,155a5.432,5.432,0,0,0-1.742-1.936l-3.348-2.268a31.531,31.531,0,0,1-7.714-7.409l-5.025-6.815Z" transform="translate(-195.681 -135.009)" fill="#271c22"/>
              </g>
              <g id="Grupo_57856" data-name="Grupo 57856" transform="translate(125.416)">
                <g id="Grupo_57852" data-name="Grupo 57852" transform="translate(36.908)">
                  <path id="Trazado_103206" data-name="Trazado 103206" d="M354.861,102.067c.376,1.843,1.023,3.267,1.444,3.181s.457-1.65.081-3.492-1.023-3.267-1.443-3.181S354.485,100.225,354.861,102.067Z" transform="translate(-354.083 -98.058)" fill="#161541"/>
                  <path id="Trazado_103207" data-name="Trazado 103207" d="M356.269,105.778c-.556,0-.923-.658-1.157-1.172a11.8,11.8,0,0,1-.741-2.422h0c-.236-1.154-.661-3.863.481-4.1s1.813,2.426,2.048,3.58.66,3.864-.481,4.1A.768.768,0,0,1,356.269,105.778Zm-1.133-6.3a9.893,9.893,0,0,0,.24,2.5h0a9.867,9.867,0,0,0,.761,2.4,11.889,11.889,0,0,0-1-4.9Z" transform="translate(-354.095 -98.07)" fill="#271c22"/>
                </g>
                <g id="Grupo_57853" data-name="Grupo 57853" transform="translate(0 9.227)">
                  <path id="Trazado_103208" data-name="Trazado 103208" d="M318.724,109.262c.272.778.82,1.294,1.225,1.153s.515-.887.245-1.664-.819-1.294-1.226-1.153S318.453,108.484,318.724,109.262Z" transform="translate(-318.064 -107.063)" fill="#161541"/>
                  <path id="Trazado_103209" data-name="Trazado 103209" d="M319.825,110.962c-.613,0-1.251-.6-1.573-1.519h0c-.375-1.078-.134-2.074.561-2.316s1.5.389,1.877,1.468.134,2.074-.559,2.316A.919.919,0,0,1,319.825,110.962Zm-.6-1.856c.195.562.507.819.6.832a1.965,1.965,0,0,0-.1-1.007c-.2-.562-.508-.819-.606-.832a1.971,1.971,0,0,0,.1,1.007Z" transform="translate(-318.076 -107.075)" fill="#271c22"/>
                </g>
                <g id="Grupo_57854" data-name="Grupo 57854" transform="translate(25.751 27.888)">
                  <path id="Trazado_103210" data-name="Trazado 103210" d="M343.856,127.475c.271.779.819,1.294,1.226,1.153s.515-.886.245-1.664-.82-1.294-1.225-1.153S343.585,126.7,343.856,127.475Z" transform="translate(-343.194 -125.275)" fill="#161541"/>
                  <path id="Trazado_103211" data-name="Trazado 103211" d="M344.954,129.176a1.3,1.3,0,0,1-.875-.395,2.833,2.833,0,0,1-.695-1.125h0a2.841,2.841,0,0,1-.155-1.315,1.065,1.065,0,0,1,1.9-.66,3.056,3.056,0,0,1,.848,2.44,1.167,1.167,0,0,1-.714,1A.927.927,0,0,1,344.954,129.176Zm-.6-1.857c.2.561.508.819.6.832a1.945,1.945,0,0,0-.1-1.007c-.2-.561-.508-.819-.606-.831a1.948,1.948,0,0,0,.1,1.006Z" transform="translate(-343.207 -125.287)" fill="#271c22"/>
                </g>
                <g id="Grupo_57855" data-name="Grupo 57855" transform="translate(41.302 61.789)">
                  <path id="Trazado_103212" data-name="Trazado 103212" d="M359.032,160.559c.27.777.82,1.293,1.225,1.152s.515-.886.245-1.664-.82-1.293-1.226-1.152S358.761,159.781,359.032,160.559Z" transform="translate(-358.371 -158.358)" fill="#161541"/>
                  <path id="Trazado_103213" data-name="Trazado 103213" d="M360.131,162.259a1.3,1.3,0,0,1-.876-.395,3.058,3.058,0,0,1-.849-2.439,1.065,1.065,0,0,1,1.9-.66,3.058,3.058,0,0,1,.849,2.439,1.168,1.168,0,0,1-.715,1A.917.917,0,0,1,360.131,162.259Zm-.706-2.863a1.968,1.968,0,0,0,.1,1.006c.2.562.507.819.6.832a1.961,1.961,0,0,0-.1-1.006C359.835,159.666,359.522,159.409,359.425,159.4Z" transform="translate(-358.383 -158.371)" fill="#271c22"/>
                </g>
              </g>
            </g>
            <g id="Grupo_57863" data-name="Grupo 57863" transform="translate(0 65.98)">
              <g id="Grupo_57862" data-name="Grupo 57862">
                <path id="Trazado_103214" data-name="Trazado 103214" d="M246.809,216.05" transform="translate(-163.827 -161.138)" fill="#e6b7b1" stroke="#271c22" stroke-linecap="round" stroke-linejoin="round" stroke-width="1"/>
                <path id="Trazado_103215" data-name="Trazado 103215" d="M264.712,220.787" transform="translate(-163.385 -161.021)" fill="#e6b7b1" stroke="#271c22" stroke-linecap="round" stroke-linejoin="round" stroke-width="1"/>
                <g id="Grupo_57861" data-name="Grupo 57861">
                  <g id="Grupo_57858" data-name="Grupo 57858">
                    <g id="Grupo_58741" data-name="Grupo 58741">
                      <g id="Grupo_58740" data-name="Grupo 58740">
                        <g id="Grupo_58739" data-name="Grupo 58739">
                          <g id="Grupo_58738" data-name="Grupo 58738">
                            <g id="Grupo_58737" data-name="Grupo 58737">
                              <g id="Grupo_58736" data-name="Grupo 58736">
                                <g id="Grupo_58735" data-name="Grupo 58735">
                                  <g id="Grupo_58734" data-name="Grupo 58734">
                                    <g id="Grupo_58733" data-name="Grupo 58733">
                                      <g id="Grupo_58732" data-name="Grupo 58732">
                                        <g id="Grupo_58731" data-name="Grupo 58731">
                                          <g id="Grupo_58730" data-name="Grupo 58730">
                                            <g id="Grupo_58729" data-name="Grupo 58729">
                                              <g id="Grupo_58728" data-name="Grupo 58728">
                                                <g id="Grupo_58727" data-name="Grupo 58727">
                                                  <g id="Grupo_58726" data-name="Grupo 58726">
                                                    <g id="Grupo_58725" data-name="Grupo 58725">
                                                      <g id="Grupo_58724" data-name="Grupo 58724">
                                                        <g id="Grupo_58723" data-name="Grupo 58723">
                                                          <g id="Grupo_58722" data-name="Grupo 58722">
                                                            <g id="Grupo_58721" data-name="Grupo 58721">
                                                              <g id="Grupo_58720" data-name="Grupo 58720">
                                                                <g id="Grupo_58719" data-name="Grupo 58719">
                                                                  <g id="Grupo_58718" data-name="Grupo 58718">
                                                                    <g id="Grupo_58717" data-name="Grupo 58717">
                                                                      <g id="Grupo_58716" data-name="Grupo 58716">
                                                                        <g id="Grupo_58715" data-name="Grupo 58715">
                                                                          <g id="Grupo_58714" data-name="Grupo 58714">
                                                                            <g id="Grupo_58713" data-name="Grupo 58713">
                                                                              <g id="Grupo_58712" data-name="Grupo 58712">
                                                                                <g id="Grupo_58711" data-name="Grupo 58711">
                                                                                  <g id="Grupo_58710" data-name="Grupo 58710">
                                                                                    <g id="Grupo_58709" data-name="Grupo 58709">
                                                                                      <g id="Grupo_58708" data-name="Grupo 58708">
                                                                                        <g id="Grupo_58707" data-name="Grupo 58707">
                                                                                          <g id="Grupo_58706" data-name="Grupo 58706">
                                                                                            <g id="Grupo_58705" data-name="Grupo 58705">
                                                                                              <g id="Grupo_58704" data-name="Grupo 58704">
                                                                                                <g id="Grupo_58703" data-name="Grupo 58703">
                                                                                                  <g id="Grupo_58702" data-name="Grupo 58702">
                                                                                                    <g id="Grupo_58701" data-name="Grupo 58701">
                                                                                                      <g id="Grupo_58700" data-name="Grupo 58700">
                                                                                                        <g id="Grupo_58699" data-name="Grupo 58699">
                                                                                                          <g id="Grupo_58698" data-name="Grupo 58698">
                                                                                                            <g id="Grupo_58697" data-name="Grupo 58697">
                                                                                                              <g id="Grupo_58696" data-name="Grupo 58696">
                                                                                                                <g id="Grupo_58695" data-name="Grupo 58695">
                                                                                                                  <g id="Grupo_58694" data-name="Grupo 58694">
                                                                                                                    <g id="Grupo_58693" data-name="Grupo 58693">
                                                                                                                      <g id="Grupo_58692" data-name="Grupo 58692">
                                                                                                                        <g id="Grupo_58691" data-name="Grupo 58691">
                                                                                                                          <path id="Trazado_103216" data-name="Trazado 103216" d="M289.02,267.625l22.343-23.8a22.579,22.579,0,0,0,5.717-20.839L313.3,207.462,298.21,222.434a32.492,32.492,0,0,1-17.705,9.008h0a15.652,15.652,0,0,1-17.064-10.513c-3.025-9.948-.462-20.718,8.759-29.352l5.711-6.223a12.4,12.4,0,0,0-.019-17.111,6.138,6.138,0,0,0-9.066.371s-2.511,2.912-5.981,6.69a12.089,12.089,0,0,0-2.136-10.76c-2-2.407-5.89-2.015-8.051.814,0,0-4.727,5.888-10.043,11.889l.032-.242a9.441,9.441,0,0,0-3-7.116c-1.848-1.665-4.836-.959-6.189,1.462,0,0-10.037,16.987-14.485,20.768-4.126,4.709-5.027,11.136-5.438,17.156a116.59,116.59,0,0,0-.051,20.94l3.229,28.646c-8.239,18.566-44.405,112.292-50.387,161.191-.028.226,92.059,0,92.059,0Z" transform="translate(-165.813 -162.449)" fill="#e6b7b1"/>
                                                                                                                        </g>
                                                                                                                      </g>
                                                                                                                    </g>
                                                                                                                  </g>
                                                                                                                </g>
                                                                                                              </g>
                                                                                                            </g>
                                                                                                          </g>
                                                                                                        </g>
                                                                                                      </g>
                                                                                                    </g>
                                                                                                  </g>
                                                                                                </g>
                                                                                              </g>
                                                                                            </g>
                                                                                          </g>
                                                                                        </g>
                                                                                      </g>
                                                                                    </g>
                                                                                  </g>
                                                                                </g>
                                                                              </g>
                                                                            </g>
                                                                          </g>
                                                                        </g>
                                                                      </g>
                                                                    </g>
                                                                  </g>
                                                                </g>
                                                              </g>
                                                            </g>
                                                          </g>
                                                        </g>
                                                      </g>
                                                    </g>
                                                  </g>
                                                </g>
                                              </g>
                                            </g>
                                          </g>
                                        </g>
                                      </g>
                                    </g>
                                  </g>
                                </g>
                              </g>
                            </g>
                          </g>
                        </g>
                      </g>
                    </g>
                    <path id="Trazado_103217" data-name="Trazado 103217" d="M193.356,420.685c-27.16,0-27.265-.126-27.4-.28a.518.518,0,0,1-.125-.4c5.94-48.564,41.648-141.5,50.37-161.21l-3.213-28.508c-.8-7.069-.413-14.267.049-21.034.427-6.256,1.4-12.7,5.564-17.457,4.386-3.736,14.329-20.522,14.428-20.691a5.018,5.018,0,0,1,3.536-2.563,4.06,4.06,0,0,1,3.438.981,9.843,9.843,0,0,1,3.117,6.4c4.887-5.569,9.105-10.82,9.15-10.875a6.432,6.432,0,0,1,4.883-2.586,4.889,4.889,0,0,1,3.961,1.766,12.187,12.187,0,0,1,2.578,9.414c2.79-3.071,4.736-5.325,4.758-5.35a6.572,6.572,0,0,1,4.869-2.368,6.449,6.449,0,0,1,4.958,1.98,12.961,12.961,0,0,1,.024,17.809l-5.709,6.222c-8.628,8.082-11.77,18.59-8.647,28.858a15.06,15.06,0,0,0,16.5,10.155,31.8,31.8,0,0,0,17.423-8.864l15.095-14.973a.513.513,0,0,1,.859.243l3.775,15.528a23.139,23.139,0,0,1-5.841,21.309l-22.244,23.691L258.9,420.166a.511.511,0,0,1-.5.412C227.563,420.653,207.028,420.685,193.356,420.685Zm-27.019-.619h0Zm92.059,0h0Zm-91.482-.483c5.9.14,61.108.045,91.062-.029L288.53,267.536a.519.519,0,0,1,.128-.249L311,243.491a22.118,22.118,0,0,0,5.593-20.367l-3.561-14.647-14.45,14.333A32.8,32.8,0,0,1,280.6,231.96a16.093,16.093,0,0,1-17.637-10.869c-3.24-10.657,0-21.546,8.9-29.877l5.683-6.194a11.946,11.946,0,0,0-.015-16.413,5.5,5.5,0,0,0-4.176-1.659,5.561,5.561,0,0,0-4.121,2c-.034.041-2.565,2.974-6,6.712a.512.512,0,0,1-.874-.471,11.5,11.5,0,0,0-2.034-10.306,3.862,3.862,0,0,0-3.153-1.4,5.409,5.409,0,0,0-4.1,2.193c-.054.068-4.8,5.977-10.066,11.919a.513.513,0,0,1-.891-.409l.033-.242a8.956,8.956,0,0,0-2.835-6.668,3.038,3.038,0,0,0-2.584-.731,4.06,4.06,0,0,0-2.814,2.063c-.418.708-10.139,17.115-14.6,20.909-3.913,4.476-4.845,10.723-5.259,16.8-.459,6.719-.841,13.864-.053,20.849l3.229,28.646a.511.511,0,0,1-.041.264C208.612,278.415,173.051,370.879,166.914,419.583Z" transform="translate(-165.825 -162.461)" fill="#271c22"/>
                  </g>
                  <path id="Trazado_103218" data-name="Trazado 103218" d="M260.309,174.642" transform="translate(-163.494 -162.16)" fill="#e6b7b1" stroke="#271c22" stroke-linecap="round" stroke-linejoin="round" stroke-width="1"/>
                  <g id="Grupo_57859" data-name="Grupo 57859" transform="translate(55.52 14.14)">
                    <path id="Trazado_103219" data-name="Trazado 103219" d="M241.406,176.761c-4.454,5.034-9.347,10.18-12.238,12.026h0a24.9,24.9,0,0,0-8.661,17.363" transform="translate(-219.996 -176.248)" fill="#e6b7b1"/>
                    <path id="Trazado_103220" data-name="Trazado 103220" d="M220.521,206.674H220.5a.512.512,0,0,1-.487-.537,25.271,25.271,0,0,1,8.837-17.725c2.421-1.553,6.616-5.679,12.189-11.977a.512.512,0,0,1,.767.678c-5.716,6.461-9.869,10.537-12.345,12.118a24.226,24.226,0,0,0-8.424,16.956A.512.512,0,0,1,220.521,206.674Z" transform="translate(-220.008 -176.261)" fill="#271c22"/>
                  </g>
                  <g id="Grupo_57860" data-name="Grupo 57860" transform="translate(70.358 12.3)">
                    <path id="Trazado_103221" data-name="Trazado 103221" d="M261.062,174.964s-10.554,12.634-17.428,16.39h0a21.525,21.525,0,0,0-8.644,17.257l.132,11.626" transform="translate(-234.476 -174.452)" fill="#e6b7b1"/>
                    <path id="Trazado_103222" data-name="Trazado 103222" d="M235.135,220.761a.513.513,0,0,1-.512-.506l-.132-11.627a21.915,21.915,0,0,1,8.844-17.669c6.776-3.709,17.242-16.186,17.347-16.311a.513.513,0,0,1,.787.657c-.433.52-10.7,12.751-17.575,16.51a20.882,20.882,0,0,0-8.378,16.8l.132,11.627a.512.512,0,0,1-.506.518Z" transform="translate(-234.489 -174.464)" fill="#271c22"/>
                  </g>
                  <path id="Trazado_103223" data-name="Trazado 103223" d="M217.7,191.417" transform="translate(-164.545 -161.746)" fill="#e6b7b1" stroke="#271c22" stroke-linecap="round" stroke-linejoin="round" stroke-width="1"/>
                </g>
              </g>
            </g>
          </g>
        </g>
      </g>
    </g>
  </g>
</svg>
